<svg class="diagram-root" style="background: #f5f6f6" xmlns="http://www.w3.org/2000/svg" xmlns:xlink="http://www.w3.org/1999/xlink"><style>.diagram-root { font-family: "Helvetica Neue", sans-serif; font-size: 12px; } .t { overflow: visible; } .t-bg { y: 40; fill: #fff;   } .th { fill: #005aa0;   } .tht { fill: #fff; font-size: 14px;  } .tf { fill: #323c46; overflow: visible; } .tf.pk { fill: #005aa0; font-weight: bold; } .tf.fk { font-weight: bold; } .ty { fill: #adb1b5; font-weight: normal; text-anchor: end; } .r { fill: transparent; stroke: #c3c3c3; stroke-width: 1; } .l { stroke: 1; } .i { fill: #c2c7ce; stroke: #c2c7ce; } .i.ix { fill: #afb3b6; stroke: #000; } .fa { fill: transparent; overflow: visible; } .fa .bg.hover { fill: #f7f7f7; } .c { cy: 12; r: 4; stroke: #d2d2dc; fill: #d2d2dc; } .hr { fill: transparent; stroke: #323c46; stroke-opacity: 0.035; stroke-width: 13; } .dc { stroke: #fa5a3c; fill: #fa5a3c; } .x { stroke: white; stroke-width: 1; } .hl .th { fill: #1b9bff; } .hl .tht {  } .fhl .bg { fill: #e7f4ff; } .fhls .bg {  } .r.hl { stroke: #1b9bff; } .dim { opacity: 0.25; }</style><g class="drawing-wrapper" transform="translate(-67.5, 4.579999999999998) scale(1,1)"><g class="rs"><path d="M 144.53 335.6 m -1, 0 a 1,1 0 1,0 2,0 a 1,1 0 1,0 -2,0 M 144.53 335.6 m -0.5, 0 a 0.5,0.5 0 1,0 1,0 a 0.5,0.5 0 1,0 -1,0  M144.53 335.6 L144.53 335.6 132.53 335.6 M 144.53 341.6 m -1, 0 a 1,1 0 1,0 2,0 a 1,1 0 1,0 -2,0 M 144.53 341.6 m -0.5, 0 a 0.5,0.5 0 1,0 1,0 a 0.5,0.5 0 1,0 -1,0  M144.53 341.6 L144.53 341.6 137.53 335.6 144.53 329.6 M 144.53 329.6 m -1, 0 a 1,1 0 1,0 2,0 a 1,1 0 1,0 -2,0 M 144.53 329.6 m -0.5, 0 a 0.5,0.5 0 1,0 1,0 a 0.5,0.5 0 1,0 -1,0  M132.53 335.6 C -5.518000000000001 335.6, 27.5 82.42, 77.5 82.42 M 89.5 82.42 m -1, 0 a 1,1 0 1,0 2,0 a 1,1 0 1,0 -2,0 M 89.5 82.42 m -0.5, 0 a 0.5,0.5 0 1,0 1,0 a 0.5,0.5 0 1,0 -1,0  M89.5 82.42 L89.5 82.42 77.5 82.42 M83.5 88.42 L83.5 88.42 83.5 76.42" id="h2066249599" class="r"></path><path d="M 644.59 287.81 m -1, 0 a 1,1 0 1,0 2,0 a 1,1 0 1,0 -2,0 M 644.59 287.81 m -0.5, 0 a 0.5,0.5 0 1,0 1,0 a 0.5,0.5 0 1,0 -1,0  M644.59 287.81 L644.59 287.81 632.59 287.81 M 644.59 293.81 m -1, 0 a 1,1 0 1,0 2,0 a 1,1 0 1,0 -2,0 M 644.59 293.81 m -0.5, 0 a 0.5,0.5 0 1,0 1,0 a 0.5,0.5 0 1,0 -1,0  M644.59 293.81 L644.59 293.81 637.59 287.81 644.59 281.81 M 644.59 281.81 m -1, 0 a 1,1 0 1,0 2,0 a 1,1 0 1,0 -2,0 M 644.59 281.81 m -0.5, 0 a 0.5,0.5 0 1,0 1,0 a 0.5,0.5 0 1,0 -1,0  M632.59 287.81 Q 602.19 287.81, 571.79 207.6 T 510.99 127.39 M 498.99 127.39 m -1, 0 a 1,1 0 1,0 2,0 a 1,1 0 1,0 -2,0 M 498.99 127.39 m -0.5, 0 a 0.5,0.5 0 1,0 1,0 a 0.5,0.5 0 1,0 -1,0  M498.99 127.39 L498.99 127.39 510.99 127.39 M504.99 133.39 L504.99 133.39 504.99 121.39" id="h3108732763" class="r"></path><path d="M 811.94 533.25 m -1, 0 a 1,1 0 1,0 2,0 a 1,1 0 1,0 -2,0 M 811.94 533.25 m -0.5, 0 a 0.5,0.5 0 1,0 1,0 a 0.5,0.5 0 1,0 -1,0  M811.94 533.25 L811.94 533.25 799.94 533.25 M 811.94 539.25 m -1, 0 a 1,1 0 1,0 2,0 a 1,1 0 1,0 -2,0 M 811.94 539.25 m -0.5, 0 a 0.5,0.5 0 1,0 1,0 a 0.5,0.5 0 1,0 -1,0  M811.94 539.25 L811.94 539.25 804.94 533.25 811.94 527.25 M 811.94 527.25 m -1, 0 a 1,1 0 1,0 2,0 a 1,1 0 1,0 -2,0 M 811.94 527.25 m -0.5, 0 a 0.5,0.5 0 1,0 1,0 a 0.5,0.5 0 1,0 -1,0  M799.94 533.25 Q 688.61 533.25, 577.27 421.93 T 354.59 310.6 M 342.59 310.6 m -1, 0 a 1,1 0 1,0 2,0 a 1,1 0 1,0 -2,0 M 342.59 310.6 m -0.5, 0 a 0.5,0.5 0 1,0 1,0 a 0.5,0.5 0 1,0 -1,0  M342.59 310.6 L342.59 310.6 354.59 310.6 M348.59 316.6 L348.59 316.6 348.59 304.6" id="h4097113437" class="r"></path><path d="M 990 558.25 m -1, 0 a 1,1 0 1,0 2,0 a 1,1 0 1,0 -2,0 M 990 558.25 m -0.5, 0 a 0.5,0.5 0 1,0 1,0 a 0.5,0.5 0 1,0 -1,0  M990 558.25 L990 558.25 1002 558.25 M 990 564.25 m -1, 0 a 1,1 0 1,0 2,0 a 1,1 0 1,0 -2,0 M 990 564.25 m -0.5, 0 a 0.5,0.5 0 1,0 1,0 a 0.5,0.5 0 1,0 -1,0  M990 564.25 L990 564.25 997 558.25 990 552.25 M 990 552.25 m -1, 0 a 1,1 0 1,0 2,0 a 1,1 0 1,0 -2,0 M 990 552.25 m -0.5, 0 a 0.5,0.5 0 1,0 1,0 a 0.5,0.5 0 1,0 -1,0  M1002 558.25 C 1052 558.25, 1142.804 237.81, 850.66 237.81 M 838.66 237.81 m -1, 0 a 1,1 0 1,0 2,0 a 1,1 0 1,0 -2,0 M 838.66 237.81 m -0.5, 0 a 0.5,0.5 0 1,0 1,0 a 0.5,0.5 0 1,0 -1,0  M838.66 237.81 L838.66 237.81 850.66 237.81 M844.66 243.81 L844.66 243.81 844.66 231.81" id="h827675183" class="r"></path></g><g class="hrs"></g><g class="ts"><svg width="178.06" height="175" x="811.94" y="401.25" id="h2303088149" class="t"><rect height="40" width="178.06" class="th"></rect><text x="13" y="25" class="tht">transactions</text><rect height="135" width="178.06" class="t-bg"></rect><text x="13" y="61" class="tf pk">id<tspan x="165.06" class="ty">int</tspan></text><path d="M7,14A2,2 0 0,1 5,12A2,2 0 0,1 7,10A2,2 0 0,1 9,12A2,2 0 0,1 7,14M12.65,10C11.83,7.67 9.61,6 7, 6A6, 6 0 0, 0 1, 12A6, 6 0 0, 0 7, 18C9.61, 18 11.83, 16.33 12.65, 14H17V18H21V14H23V10H12.65Z" class="i pk" transform="translate(132.386171875, 48) scale(0.65)"></path><text x="13" y="86" class="tf">date<tspan x="165.06" class="ty">timestamp</tspan></text><text x="13" y="111" class="tf">amount<tspan x="165.06" class="ty">decimal(2)</tspan></text><text x="13" y="136" class="tf fk">card_number<tspan x="165.06" class="ty">varchar(20)</tspan></text><text x="13" y="161" class="tf fk">merch_id<tspan x="165.06" class="ty">int</tspan></text></svg><svg width="153.38" height="100" x="345.61" y="70.39" id="h1670232039" class="t"><rect height="40" width="153.38" class="th"></rect><text x="13" y="25" class="tht">merchant_category</text><rect height="60" width="153.38" class="t-bg"></rect><text x="13" y="61" class="tf pk">cat_id<tspan x="140.38" class="ty">int</tspan></text><path d="M7,14A2,2 0 0,1 5,12A2,2 0 0,1 7,10A2,2 0 0,1 9,12A2,2 0 0,1 7,14M12.65,10C11.83,7.67 9.61,6 7, 6A6, 6 0 0, 0 1, 12A6, 6 0 0, 0 7, 18C9.61, 18 11.83, 16.33 12.65, 14H17V18H21V14H23V10H12.65Z" class="i pk" transform="translate(107.706171875, 48) scale(0.65)"></path><text x="13" y="86" class="tf">category<tspan x="140.38" class="ty">varchar(20)</tspan></text></svg><svg width="194.07" height="125" x="644.59" y="180.81" id="h1481749269" class="t"><rect height="40" width="194.07" class="th"></rect><text x="13" y="25" class="tht">merchant</text><rect height="85" width="194.07" class="t-bg"></rect><text x="13" y="61" class="tf pk">merch_id<tspan x="181.07" class="ty">int</tspan></text><path d="M7,14A2,2 0 0,1 5,12A2,2 0 0,1 7,10A2,2 0 0,1 9,12A2,2 0 0,1 7,14M12.65,10C11.83,7.67 9.61,6 7, 6A6, 6 0 0, 0 1, 12A6, 6 0 0, 0 7, 18C9.61, 18 11.83, 16.33 12.65, 14H17V18H21V14H23V10H12.65Z" class="i pk" transform="translate(148.396171875, 48) scale(0.65)"></path><text x="13" y="86" class="tf">merchant_name<tspan x="181.07" class="ty">varchar(50)</tspan></text><text x="13" y="111" class="tf fk">cat_id<tspan x="181.07" class="ty">int</tspan></text></svg><svg width="198.06" height="100" x="144.53" y="253.60000000000002" id="h198306241" class="t"><rect height="40" width="198.06" class="th"></rect><text x="13" y="25" class="tht">credit_card</text><rect height="60" width="198.06" class="t-bg"></rect><text x="13" y="61" class="tf pk">card_number<tspan x="185.06" class="ty">varchar(20)</tspan></text><path d="M7,14A2,2 0 0,1 5,12A2,2 0 0,1 7,10A2,2 0 0,1 9,12A2,2 0 0,1 7,14M12.65,10C11.83,7.67 9.61,6 7, 6A6, 6 0 0, 0 1, 12A6, 6 0 0, 0 7, 18C9.61, 18 11.83, 16.33 12.65, 14H17V18H21V14H23V10H12.65Z" class="i pk" transform="translate(103.706484375, 48) scale(0.65)"></path><text x="13" y="86" class="tf fk">holder_id<tspan x="185.06" class="ty">int</tspan></text></svg><svg width="177.4" height="100" x="89.5" y="25.42" id="h99212310" class="t"><rect height="40" width="177.4" class="th"></rect><text x="13" y="25" class="tht">card_holder</text><rect height="60" width="177.4" class="t-bg"></rect><text x="13" y="61" class="tf pk">holder_id<tspan x="164.4" class="ty">int</tspan></text><path d="M7,14A2,2 0 0,1 5,12A2,2 0 0,1 7,10A2,2 0 0,1 9,12A2,2 0 0,1 7,14M12.65,10C11.83,7.67 9.61,6 7, 6A6, 6 0 0, 0 1, 12A6, 6 0 0, 0 7, 18C9.61, 18 11.83, 16.33 12.65, 14H17V18H21V14H23V10H12.65Z" class="i pk" transform="translate(131.726171875, 48) scale(0.65)"></path><text x="13" y="86" class="tf">holder_name<tspan x="164.4" class="ty">varchar(50)</tspan></text></svg></g></g><text class="qdbd-link" x="10" y="20">www.quickdatabasediagrams.com</text></svg>